<svg width="40" height="40" viewBox="0 0 40 40" fill="none" xmlns="http://www.w3.org/2000/svg">
<path d="M2.5 2.5V36.25C2.5 36.5815 2.6317 36.8995 2.86612 37.1339C3.10054 37.3683 3.41848 37.5 3.75 37.5H37.5" stroke="#121180" stroke-width="2.5" stroke-linecap="round" stroke-linejoin="round"/>
<path d="M12.1875 17.5H9.0625C8.19956 17.5 7.5 18.1996 7.5 19.0625V30.9375C7.5 31.8004 8.19956 32.5 9.0625 32.5H12.1875C13.0504 32.5 13.75 31.8004 13.75 30.9375V19.0625C13.75 18.1996 13.0504 17.5 12.1875 17.5Z" stroke="#121180" stroke-width="2.5" stroke-linecap="round" stroke-linejoin="round"/>
<path d="M23.4375 13.75H20.3125C19.4496 13.75 18.75 14.4496 18.75 15.3125V30.9375C18.75 31.8004 19.4496 32.5 20.3125 32.5H23.4375C24.3004 32.5 25 31.8004 25 30.9375V15.3125C25 14.4496 24.3004 13.75 23.4375 13.75Z" stroke="#121180" stroke-width="2.5" stroke-linecap="round" stroke-linejoin="round"/>
<path d="M34.6594 8.75H31.5344C30.6714 8.75 29.9719 9.44956 29.9719 10.3125V30.9375C29.9719 31.8004 30.6714 32.5 31.5344 32.5H34.6594C35.5223 32.5 36.2219 31.8004 36.2219 30.9375V10.3125C36.2219 9.44956 35.5223 8.75 34.6594 8.75Z" stroke="#121180" stroke-width="2.5" stroke-linecap="round" stroke-linejoin="round"/>
</svg>
