<svg width="40" height="40" viewBox="0 0 40 40" fill="none" xmlns="http://www.w3.org/2000/svg">
<path d="M35.6797 18.9273L33.6422 18.5992C33.5106 18.5771 33.3896 18.5134 33.2968 18.4175C33.2041 18.3217 33.1444 18.1986 33.1266 18.0664C33.0875 17.8164 33.0484 17.5656 32.9938 17.3234C32.9673 17.1934 32.9825 17.0583 33.0372 16.9375C33.0919 16.8166 33.1833 16.716 33.2984 16.65L35.1023 15.6484C35.2389 15.5786 35.3452 15.4613 35.4013 15.3186C35.4574 15.1759 35.4595 15.0175 35.407 14.8734L35.0945 14.0141C35.0423 13.8695 34.9382 13.7496 34.8025 13.6774C34.6668 13.6052 34.5092 13.586 34.3602 13.6234L32.3375 14.0141C32.206 14.0395 32.0698 14.022 31.949 13.9642C31.8282 13.9064 31.7291 13.8113 31.6664 13.693C31.5492 13.4742 31.4242 13.2552 31.2914 13.0359C31.2213 12.9219 31.1888 12.7887 31.1987 12.6552C31.2085 12.5217 31.2601 12.3947 31.3461 12.2922L32.6969 10.7344C32.8016 10.6229 32.8619 10.4769 32.8662 10.324C32.8705 10.1711 32.8186 10.0219 32.7203 9.90468L32.1352 9.20156C32.0376 9.08331 31.8995 9.00569 31.7478 8.98387C31.5961 8.96205 31.4417 8.99761 31.3148 9.08359L29.5422 10.1484C29.4282 10.216 29.2958 10.2455 29.1639 10.2329C29.0321 10.2203 28.9076 10.1661 28.8086 10.0781C28.6211 9.91328 28.4258 9.74921 28.2305 9.59218C28.1266 9.50964 28.0517 9.39618 28.0165 9.26823C27.9814 9.14027 27.988 9.00447 28.0352 8.88046L28.7695 6.94687C28.832 6.80659 28.8407 6.64821 28.7939 6.50195C28.747 6.35569 28.648 6.23179 28.5156 6.1539L27.7188 5.69218C27.5858 5.61666 27.4297 5.59253 27.2801 5.62435C27.1305 5.65616 26.9978 5.74173 26.907 5.86484L25.607 7.49296C25.5344 7.59543 25.4294 7.67044 25.3089 7.70587C25.1884 7.74131 25.0595 7.73511 24.943 7.68828C24.943 7.68828 24.5055 7.50859 24.1773 7.39843C24.0515 7.35649 23.9422 7.27559 23.8654 7.16745C23.7886 7.0593 23.7482 6.92951 23.75 6.79687L23.7813 4.73046C23.7905 4.57677 23.7431 4.42502 23.6481 4.30383C23.5531 4.18265 23.4171 4.10042 23.2656 4.07265L22.3602 3.9164C22.2086 3.89015 22.0527 3.92022 21.9217 4.00094C21.7908 4.08166 21.6939 4.20747 21.6492 4.35468L20.9773 6.31171C20.9342 6.43786 20.8519 6.54691 20.7424 6.62295C20.6329 6.69899 20.502 6.73803 20.3688 6.73437H19.6031C19.4701 6.73718 19.3395 6.6978 19.2302 6.62188C19.1209 6.54596 19.0384 6.43739 18.9945 6.31171L18.3227 4.35468C18.278 4.20747 18.1811 4.08166 18.0502 4.00094C17.9192 3.92022 17.7633 3.89015 17.6117 3.9164L16.7063 4.07265C16.5548 4.10042 16.4188 4.18265 16.3238 4.30383C16.2288 4.42502 16.1814 4.57677 16.1906 4.73046L16.2219 6.79687C16.2238 6.92984 16.1832 7.05995 16.1061 7.16828C16.0289 7.2766 15.9192 7.3575 15.793 7.39921C15.6133 7.46953 15.2227 7.61874 15.0352 7.68906C14.8164 7.76718 14.5586 7.70468 14.3477 7.46171L13.0578 5.87265C12.9666 5.75006 12.8337 5.66512 12.6841 5.63388C12.5346 5.60264 12.3787 5.62727 12.2461 5.70312L11.4492 6.16484C11.3165 6.24125 11.2168 6.36403 11.1692 6.50956C11.1216 6.65508 11.1295 6.81307 11.1914 6.95312L11.9258 8.88671C11.9723 9.01081 11.9784 9.1464 11.9433 9.27419C11.9083 9.40197 11.8338 9.51544 11.7305 9.59843C11.5352 9.75468 11.3398 9.91953 11.1523 10.0844C11.0533 10.1723 10.9289 10.2265 10.797 10.2392C10.6652 10.2518 10.5327 10.2222 10.4188 10.1547L8.67188 9.07343C8.54433 8.98951 8.39048 8.95517 8.23936 8.9769C8.08823 8.99864 7.95029 9.07494 7.85156 9.1914L7.26641 9.89453C7.1681 10.0117 7.11619 10.1609 7.12051 10.3138C7.12483 10.4667 7.18508 10.6127 7.28984 10.7242L8.64063 12.282C8.72845 12.3837 8.7812 12.5109 8.79105 12.6449C8.8009 12.7788 8.76733 12.9124 8.69531 13.0258C8.5625 13.2341 8.4375 13.4531 8.32031 13.6828C8.2566 13.8003 8.15739 13.8946 8.03685 13.9522C7.91632 14.0099 7.78065 14.028 7.64922 14.0039L5.62656 13.6133C5.47755 13.5769 5.32037 13.5967 5.18496 13.6687C5.04954 13.7407 4.94534 13.86 4.89219 14.0039L4.57969 14.8633C4.52725 15.0074 4.52928 15.1657 4.58539 15.3084C4.6415 15.4512 4.74783 15.5685 4.88438 15.6383L6.68594 16.6406C6.80226 16.7053 6.89467 16.8057 6.94954 16.927C7.00441 17.0483 7.01881 17.184 6.99063 17.3141C6.94375 17.5641 6.89688 17.807 6.85781 18.057C6.83906 18.1889 6.77908 18.3114 6.68647 18.4071C6.59386 18.5028 6.47335 18.5668 6.34219 18.5898L4.30469 18.918C4.15306 18.9366 4.01334 19.0096 3.91136 19.1234C3.80939 19.2371 3.75206 19.384 3.75 19.5367V20.4523C3.74811 20.6062 3.80406 20.7552 3.90678 20.8698C4.00951 20.9844 4.15152 21.0562 4.30469 21.0711L6.34219 21.3992C6.47375 21.4214 6.59477 21.485 6.68754 21.5809C6.78032 21.6768 6.83999 21.7998 6.85781 21.932C6.89688 22.182 6.93594 22.4328 6.99063 22.675C7.01706 22.805 7.00185 22.9401 6.94716 23.061C6.89246 23.1819 6.80106 23.2824 6.68594 23.3484L4.88203 24.3516C4.74549 24.4214 4.63916 24.5387 4.58304 24.6814C4.52693 24.8241 4.52491 24.9824 4.57734 25.1266L4.88984 25.9859C4.94212 26.1304 5.04618 26.2504 5.18186 26.3226C5.31753 26.3947 5.47517 26.414 5.62422 26.3766L7.64688 25.9859C7.77838 25.9605 7.91458 25.9779 8.0354 26.0358C8.15622 26.0936 8.25528 26.1887 8.31797 26.307C8.43516 26.5258 8.56016 26.7448 8.69297 26.9641C8.76309 27.0781 8.79554 27.2113 8.78573 27.3448C8.77591 27.4783 8.72432 27.6053 8.63828 27.7078L7.2875 29.2672C7.18274 29.3786 7.12249 29.5247 7.11817 29.6776C7.11385 29.8305 7.16576 29.9797 7.26406 30.0969L7.84922 30.8C7.94673 30.9182 8.08484 30.9959 8.23655 31.0177C8.38826 31.0395 8.54265 31.0039 8.66953 30.918L10.4422 29.8531C10.5561 29.7856 10.6886 29.756 10.8205 29.7686C10.9523 29.7813 11.0767 29.8355 11.1758 29.9234C11.3633 30.0883 11.5586 30.2523 11.7539 30.4094C11.8578 30.4919 11.9327 30.6054 11.9678 30.7333C12.0029 30.8613 11.9964 30.9971 11.9492 31.1211L11.2148 33.0547C11.1534 33.1951 11.1456 33.3533 11.1932 33.4991C11.2407 33.6449 11.3402 33.7681 11.4727 33.8453L12.2695 34.307C12.4025 34.3825 12.5586 34.4067 12.7082 34.3749C12.8578 34.343 12.9905 34.2575 13.0813 34.1344L14.393 32.5219C14.557 32.3187 14.8227 32.2328 15.0336 32.3187C15.2992 32.4281 15.4789 32.4906 15.807 32.6008C15.9333 32.6425 16.043 32.7234 16.1201 32.8317C16.1973 32.94 16.2378 33.0701 16.2359 33.2031L16.2047 35.2695C16.1955 35.4232 16.2428 35.575 16.3378 35.6962C16.4328 35.8173 16.5689 35.8996 16.7203 35.9273L17.6258 36.0836C17.7774 36.1098 17.9333 36.0798 18.0642 35.999C18.1952 35.9183 18.2921 35.7925 18.3367 35.6453L19.0086 33.6922C19.0517 33.566 19.134 33.457 19.2435 33.3809C19.353 33.3049 19.4839 33.2659 19.6172 33.2695H20.3828C20.5159 33.2667 20.6464 33.3061 20.7558 33.382C20.8651 33.4579 20.9476 33.5665 20.9914 33.6922L21.6633 35.6453C21.7079 35.7925 21.8048 35.9183 21.9358 35.999C22.0667 36.0798 22.2227 36.1098 22.3742 36.0836L23.2797 35.9273C23.4311 35.8996 23.5672 35.8173 23.6622 35.6962C23.7572 35.575 23.8045 35.4232 23.7953 35.2695L23.7641 33.2031C23.7622 33.0701 23.8027 32.94 23.8799 32.8317C23.957 32.7234 24.0667 32.6425 24.193 32.6008C24.5211 32.4906 24.7398 32.4047 24.943 32.3266C25.1461 32.2484 25.3961 32.2484 25.5914 32.4906L26.9195 34.1266C27.0107 34.2501 27.1442 34.3357 27.2945 34.3671C27.4448 34.3985 27.6013 34.3735 27.7344 34.2969L28.5313 33.8352C28.6646 33.7588 28.7649 33.6356 28.8125 33.4895C28.8602 33.3434 28.8518 33.1848 28.7891 33.0445L28.0547 31.1109C28.0083 30.9867 28.0022 30.851 28.0372 30.7231C28.0723 30.5952 28.1467 30.4816 28.25 30.3984C28.4453 30.2422 28.6406 30.0781 28.8281 29.9133C28.9272 29.8253 29.0516 29.7711 29.1835 29.7585C29.3153 29.7459 29.4478 29.7754 29.5617 29.843L31.3281 30.9109C31.4557 30.9949 31.6095 31.0292 31.7606 31.0075C31.9118 30.9857 32.0497 30.9094 32.1484 30.793L32.7336 30.0898C32.8319 29.9726 32.8838 29.8235 32.8795 29.6705C32.8752 29.5176 32.8149 29.3716 32.7102 29.2602L31.3594 27.7023C31.2715 27.6007 31.2188 27.4735 31.2089 27.3395C31.1991 27.2055 31.2327 27.072 31.3047 26.9586C31.4375 26.7477 31.5625 26.5286 31.6797 26.3016C31.7434 26.1841 31.8426 26.0898 31.9631 26.0321C32.0837 25.9745 32.2194 25.9564 32.3508 25.9805L34.3734 26.3711C34.5225 26.4074 34.6796 26.3877 34.815 26.3157C34.9505 26.2437 35.0547 26.1243 35.1078 25.9805L35.4203 25.1211C35.4728 24.977 35.4707 24.8187 35.4146 24.6759C35.3585 24.5332 35.2522 24.4159 35.1156 24.3461L33.3117 23.3445C33.1954 23.2798 33.103 23.1794 33.0481 23.0581C32.9933 22.9369 32.9788 22.8012 33.007 22.6711C33.0539 22.4211 33.1008 22.1781 33.1398 21.9281C33.1586 21.7963 33.2186 21.6737 33.3112 21.578C33.4038 21.4823 33.5243 21.4184 33.6555 21.3953L35.693 21.0672C35.8446 21.0485 35.9843 20.9755 36.0863 20.8618C36.1883 20.748 36.2456 20.6012 36.2477 20.4484V19.5312C36.2391 19.3799 36.1775 19.2363 36.0737 19.1259C35.9698 19.0154 35.8303 18.9451 35.6797 18.9273ZM20 8.74999C22.4953 8.74893 24.92 9.57854 26.8916 11.108C28.8632 12.6374 30.2697 14.7797 30.8891 17.1969C30.9351 17.3812 30.9386 17.5736 30.8991 17.7595C30.8597 17.9453 30.7784 18.1198 30.6614 18.2695C30.5445 18.4192 30.3949 18.5403 30.2241 18.6236C30.0533 18.7069 29.8658 18.7501 29.6758 18.75H21.4539C21.2331 18.75 21.0162 18.6916 20.8253 18.5805C20.6344 18.4695 20.4764 18.3099 20.3672 18.118L16.2969 10.9531C16.2021 10.7865 16.1469 10.6004 16.1355 10.4091C16.1241 10.2178 16.1569 10.0264 16.2313 9.8498C16.3057 9.67317 16.4197 9.51601 16.5645 9.39047C16.7093 9.26493 16.881 9.17436 17.0664 9.12578C18.024 8.87455 19.01 8.74824 20 8.74999ZM8.75 20C8.7486 18.4937 9.04972 17.0024 9.63551 15.6146C10.2213 14.2268 11.0798 12.9708 12.1602 11.9211C12.2966 11.786 12.4623 11.6842 12.6444 11.6235C12.8265 11.5628 13.0201 11.5449 13.2103 11.5711C13.4005 11.5973 13.582 11.667 13.7409 11.7747C13.8998 11.8824 14.0318 12.0253 14.1266 12.1922L18.2078 19.375C18.3156 19.5638 18.3724 19.7775 18.3724 19.9949C18.3724 20.2124 18.3156 20.426 18.2078 20.6148L14.093 27.7789C13.9974 27.9453 13.8649 28.0876 13.7055 28.1945C13.5462 28.3015 13.3644 28.3703 13.1742 28.3957C12.9839 28.4211 12.7904 28.4023 12.6086 28.3409C12.4268 28.2794 12.2616 28.177 12.1258 28.0414C11.056 26.9934 10.2063 25.7422 9.62659 24.3613C9.0469 22.9804 8.74887 21.4976 8.75 20ZM20 31.25C18.9928 31.2526 17.9897 31.1225 17.0164 30.8633C16.8311 30.814 16.6596 30.7228 16.5151 30.5966C16.3707 30.4704 16.2572 30.3127 16.1835 30.1357C16.1098 29.9587 16.0778 29.767 16.09 29.5757C16.1022 29.3843 16.1583 29.1983 16.2539 29.032L20.3617 21.8797C20.4716 21.6894 20.6297 21.5314 20.82 21.4217C21.0104 21.312 21.2264 21.2544 21.4461 21.2547H29.6797C29.8696 21.2547 30.0571 21.298 30.2278 21.3813C30.3985 21.4646 30.5479 21.5858 30.6648 21.7355C30.7817 21.8852 30.8629 22.0596 30.9023 22.2454C30.9417 22.4312 30.9383 22.6235 30.8922 22.8078C30.2715 25.2245 28.8642 27.366 26.8921 28.8945C24.9199 30.423 22.4951 31.2517 20 31.25Z" fill="#9D00A3"/>
</svg>
