<svg width="10" height="10" viewBox="0 0 10 10" fill="none" xmlns="http://www.w3.org/2000/svg">
<g clip-path="url(#clip0_77_2)">
<path d="M7.94922 2.5H3.61328C2.99843 2.5 2.5 2.99843 2.5 3.61328V7.94922C2.5 8.56407 2.99843 9.0625 3.61328 9.0625H7.94922C8.56407 9.0625 9.0625 8.56407 9.0625 7.94922V3.61328C9.0625 2.99843 8.56407 2.5 7.94922 2.5Z" stroke="#1864FC" stroke-width="0.625" stroke-linejoin="round"/>
<path d="M7.49023 2.5L7.5 2.03125C7.49918 1.74142 7.38368 1.4637 7.17874 1.25876C6.9738 1.05382 6.69608 0.938325 6.40625 0.9375H2.1875C1.85628 0.938479 1.53891 1.07049 1.3047 1.3047C1.07049 1.53891 0.938479 1.85628 0.9375 2.1875V6.40625C0.938325 6.69608 1.05382 6.9738 1.25876 7.17874C1.4637 7.38368 1.74142 7.49918 2.03125 7.5H2.5" stroke="#1864FC" stroke-width="0.625" stroke-linecap="round" stroke-linejoin="round"/>
</g>
<defs>
<clipPath id="clip0_77_2">
<rect width="10" height="10" fill="white"/>
</clipPath>
</defs>
</svg>
