<svg width="40" height="40" viewBox="0 0 40 40" fill="none" xmlns="http://www.w3.org/2000/svg">
<path d="M14.375 20C15.4105 20 16.25 19.1605 16.25 18.125C16.25 17.0895 15.4105 16.25 14.375 16.25C13.3395 16.25 12.5 17.0895 12.5 18.125C12.5 19.1605 13.3395 20 14.375 20Z" fill="#9D00A3"/>
<path d="M20.0039 30C16.4555 30 13.4711 27.693 12.5266 24.5445C12.5001 24.4508 12.496 24.3523 12.5144 24.2567C12.5328 24.1611 12.5733 24.0711 12.6326 23.994C12.692 23.9168 12.7685 23.8546 12.8562 23.8122C12.9438 23.7698 13.0402 23.7485 13.1375 23.75H26.8633C26.9606 23.7485 27.0569 23.7698 27.1446 23.8122C27.2322 23.8546 27.3088 23.9168 27.3681 23.994C27.4275 24.0711 27.468 24.1611 27.4864 24.2567C27.5048 24.3523 27.5006 24.4508 27.4742 24.5445C26.5375 27.693 23.5523 30 20.0039 30Z" fill="#9D00A3"/>
<path d="M25.625 20C26.6605 20 27.5 19.1605 27.5 18.125C27.5 17.0895 26.6605 16.25 25.625 16.25C24.5895 16.25 23.75 17.0895 23.75 18.125C23.75 19.1605 24.5895 20 25.625 20Z" fill="#9D00A3"/>
<path d="M20 36.25C28.9746 36.25 36.25 28.9746 36.25 20C36.25 11.0254 28.9746 3.75 20 3.75C11.0254 3.75 3.75 11.0254 3.75 20C3.75 28.9746 11.0254 36.25 20 36.25Z" stroke="#9D00A3" stroke-width="2.5" stroke-miterlimit="10"/>
</svg>
