<svg width="40" height="40" viewBox="0 0 40 40" fill="none" xmlns="http://www.w3.org/2000/svg">
<path d="M29.375 11.25C29.0688 15.3805 25.9375 18.75 22.5 18.75C19.0625 18.75 15.9258 15.3813 15.625 11.25C15.3125 6.95312 18.3594 3.75 22.5 3.75C26.6406 3.75 29.6875 7.03125 29.375 11.25Z" stroke="#1864FC" stroke-width="2.5" stroke-linecap="round" stroke-linejoin="round"/>
<path d="M22.5 23.75C15.7031 23.75 8.80469 27.5 7.52813 34.5781C7.37188 35.4313 7.85703 36.25 8.75078 36.25H36.25C37.1438 36.25 37.6266 35.4313 37.4727 34.5781C36.1953 27.5 29.2969 23.75 22.5 23.75Z" stroke="#1864FC" stroke-width="2.5" stroke-miterlimit="10"/>
<path d="M6.875 13.75V22.5M11.25 18.125H2.5" stroke="#11B06C" stroke-width="2.5" stroke-linecap="round" stroke-linejoin="round"/>
</svg>
