<svg width="40" height="40" viewBox="0 0 40 40" fill="none" xmlns="http://www.w3.org/2000/svg">
<path d="M31.875 26.25H26.875C26.5298 26.25 26.25 26.5298 26.25 26.875V31.875C26.25 32.2202 26.5298 32.5 26.875 32.5H31.875C32.2202 32.5 32.5 32.2202 32.5 31.875V26.875C32.5 26.5298 32.2202 26.25 31.875 26.25Z" fill="#121180"/>
<path d="M25.625 21.25H21.875C21.5298 21.25 21.25 21.5298 21.25 21.875V25.625C21.25 25.9702 21.5298 26.25 21.875 26.25H25.625C25.9702 26.25 26.25 25.9702 26.25 25.625V21.875C26.25 21.5298 25.9702 21.25 25.625 21.25Z" fill="#121180"/>
<path d="M36.875 32.5H33.125C32.7798 32.5 32.5 32.7798 32.5 33.125V36.875C32.5 37.2202 32.7798 37.5 33.125 37.5H36.875C37.2202 37.5 37.5 37.2202 37.5 36.875V33.125C37.5 32.7798 37.2202 32.5 36.875 32.5Z" fill="#121180"/>
<path d="M36.875 21.25H34.375C34.0298 21.25 33.75 21.5298 33.75 21.875V24.375C33.75 24.7202 34.0298 25 34.375 25H36.875C37.2202 25 37.5 24.7202 37.5 24.375V21.875C37.5 21.5298 37.2202 21.25 36.875 21.25Z" fill="#121180"/>
<path d="M24.375 33.75H21.875C21.5298 33.75 21.25 34.0298 21.25 34.375V36.875C21.25 37.2202 21.5298 37.5 21.875 37.5H24.375C24.7202 37.5 25 37.2202 25 36.875V34.375C25 34.0298 24.7202 33.75 24.375 33.75Z" fill="#121180"/>
<path d="M31.875 7.5H26.875C26.5298 7.5 26.25 7.77982 26.25 8.125V13.125C26.25 13.4702 26.5298 13.75 26.875 13.75H31.875C32.2202 13.75 32.5 13.4702 32.5 13.125V8.125C32.5 7.77982 32.2202 7.5 31.875 7.5Z" fill="#121180"/>
<path d="M35 3.75H23.75C23.0596 3.75 22.5 4.30964 22.5 5V16.25C22.5 16.9404 23.0596 17.5 23.75 17.5H35C35.6904 17.5 36.25 16.9404 36.25 16.25V5C36.25 4.30964 35.6904 3.75 35 3.75Z" stroke="#121180" stroke-width="2.5" stroke-linecap="round" stroke-linejoin="round"/>
<path d="M13.125 7.5H8.125C7.77982 7.5 7.5 7.77982 7.5 8.125V13.125C7.5 13.4702 7.77982 13.75 8.125 13.75H13.125C13.4702 13.75 13.75 13.4702 13.75 13.125V8.125C13.75 7.77982 13.4702 7.5 13.125 7.5Z" fill="#121180"/>
<path d="M16.25 3.75H5C4.30964 3.75 3.75 4.30964 3.75 5V16.25C3.75 16.9404 4.30964 17.5 5 17.5H16.25C16.9404 17.5 17.5 16.9404 17.5 16.25V5C17.5 4.30964 16.9404 3.75 16.25 3.75Z" stroke="#121180" stroke-width="2.5" stroke-linecap="round" stroke-linejoin="round"/>
<path d="M13.125 26.25H8.125C7.77982 26.25 7.5 26.5298 7.5 26.875V31.875C7.5 32.2202 7.77982 32.5 8.125 32.5H13.125C13.4702 32.5 13.75 32.2202 13.75 31.875V26.875C13.75 26.5298 13.4702 26.25 13.125 26.25Z" fill="#121180"/>
<path d="M16.25 22.5H5C4.30964 22.5 3.75 23.0596 3.75 23.75V35C3.75 35.6904 4.30964 36.25 5 36.25H16.25C16.9404 36.25 17.5 35.6904 17.5 35V23.75C17.5 23.0596 16.9404 22.5 16.25 22.5Z" stroke="#121180" stroke-width="2.5" stroke-linecap="round" stroke-linejoin="round"/>
</svg>
