<svg width="40" height="40" viewBox="0 0 40 40" fill="none" xmlns="http://www.w3.org/2000/svg">
<g clip-path="url(#clip0_16_282)">
<path d="M36.0789 4.20389C36.0656 4.13978 36.0343 4.08079 35.9886 4.03387C35.9429 3.98695 35.8848 3.95405 35.8211 3.93905C31.5727 2.89999 21.7586 6.60233 16.4359 11.9211C15.4873 12.8619 14.6223 13.8835 13.8508 14.9742C12.2102 14.8258 10.5695 14.9508 9.17265 15.5601C5.22812 17.2945 4.08046 21.8242 3.76015 23.7687C3.7428 23.8753 3.75021 23.9844 3.78182 24.0876C3.81342 24.1908 3.86837 24.2854 3.94241 24.364C4.01644 24.4425 4.10757 24.503 4.20874 24.5407C4.3099 24.5784 4.41839 24.5922 4.52578 24.5812L10.8594 23.8859C10.8638 24.3636 10.8924 24.8408 10.9453 25.3156C10.9784 25.6438 11.1248 25.9502 11.3594 26.182L13.8117 28.6344C14.0438 28.8691 14.3505 29.0155 14.6789 29.0484C15.1508 29.1011 15.6252 29.1297 16.1 29.1344L15.4055 35.4625C15.3946 35.5697 15.4086 35.678 15.4463 35.779C15.484 35.88 15.5444 35.971 15.6228 36.0449C15.7013 36.1189 15.7957 36.1738 15.8988 36.2054C16.0018 36.237 16.1108 36.2445 16.2172 36.2273C18.1625 35.9148 22.7016 34.7672 24.4258 30.8234C25.0352 29.425 25.1602 27.793 25.0195 26.1601C26.1135 25.3893 27.138 24.5243 28.0812 23.575C33.4234 18.2625 37.1023 8.66405 36.0789 4.20389ZM23.3328 16.693C22.8662 16.2264 22.5484 15.632 22.4196 14.9849C22.2908 14.3378 22.3569 13.667 22.6093 13.0574C22.8618 12.4478 23.2894 11.9267 23.838 11.5601C24.3866 11.1936 25.0316 10.9979 25.6914 10.9979C26.3512 10.9979 26.9962 11.1936 27.5448 11.5601C28.0934 11.9267 28.521 12.4478 28.7735 13.0574C29.0259 13.667 29.092 14.3378 28.9632 14.9849C28.8344 15.632 28.5166 16.2264 28.05 16.693C27.7405 17.0031 27.3729 17.2492 26.9681 17.4171C26.5634 17.585 26.1296 17.6714 25.6914 17.6714C25.2532 17.6714 24.8194 17.585 24.4147 17.4171C24.0099 17.2492 23.6423 17.0031 23.3328 16.693Z" stroke="#1864FC" stroke-width="2.5" stroke-linecap="round" stroke-linejoin="round"/>
<path d="M8.56562 27.5C7.78681 27.5956 7.06226 27.9487 6.50703 28.5031C5.13047 29.8844 5 35 5 35C5 35 10.1187 34.8695 11.4961 33.4914C12.0528 32.9371 12.4065 32.2113 12.5 31.4313" stroke="#1864FC" stroke-width="2.5" stroke-linecap="round" stroke-linejoin="round"/>
</g>
<defs>
<clipPath id="clip0_16_282">
<rect width="40" height="40" fill="white"/>
</clipPath>
</defs>
</svg>
