<svg width="500" height="500" fill="none" xmlns="http://www.w3.org/2000/svg"><g clip-path="url(#a)"><path d="M30.122 291.907s10.928 78.705 82.229 123.47 162.754 37.593 236.998 33.736c74.243-3.857 126.413-52.546 128.224-116.886 1.811-64.34-56.488-76.157-94.7-144.556-38.212-68.399-38.008-92.417-107.376-128.973-69.368-36.556-167.63 2.82-212.601 85.133-44.971 82.315-32.774 148.076-32.774 148.076Z" fill="#1864FC"/><path opacity=".7" d="M30.122 291.907s10.928 78.705 82.229 123.47 162.754 37.593 236.998 33.736c74.243-3.857 126.413-52.546 128.224-116.886 1.811-64.34-56.488-76.157-94.7-144.556-38.212-68.399-38.008-92.417-107.376-128.973-69.368-36.556-167.63 2.82-212.601 85.133-44.971 82.315-32.774 148.076-32.774 148.076Z" fill="#fff"/><path d="M338.849 68.158c-7.889 9.011-12.681 20.802-12.681 33.72h39.21l-26.529-33.72ZM412.054 64.17l-25.836 37.708h42.399c0-14.92-6.383-28.346-16.563-37.708ZM341.647 65.203l28.673 36.675h3.384V50.8c-12.441.887-23.65 6.208-32.057 14.403ZM371.121 244.052h-45.998v57.497h45.998v-57.497ZM377.704 50.662v51.216h3.666l27.616-40.305c-8.629-6.773-19.478-10.841-31.282-10.911ZM428.617 110.241h-45.998v57.497h45.998v-57.497ZM371.121 177.147h-45.998v57.497h45.998v-57.497ZM428.617 177.147h-45.998v57.497h45.998v-57.497ZM428.617 244.052h-45.998v57.497h45.998v-57.497ZM371.121 110.241h-45.998v57.497h45.998v-57.497Z" stroke="#263238" stroke-miterlimit="10" stroke-linecap="round" stroke-linejoin="round"/><path d="M255.666 455.198c128.764 0 233.148-18.411 233.148-41.122s-104.384-41.122-233.148-41.122-233.148 18.411-233.148 41.122 104.384 41.122 233.148 41.122Z" fill="#1864FC"/><path opacity=".5" d="M255.666 455.198c128.764 0 233.148-18.411 233.148-41.122s-104.384-41.122-233.148-41.122-233.148 18.411-233.148 41.122 104.384 41.122 233.148 41.122Z" fill="#fff"/><path d="M451.371 198.694s0-4.718-6.605-11.323-10.851-10.379-10.851-10.379-3.302 10.851 2.831 17.456c6.133 6.605 14.625 12.738 14.625 12.738v-8.492ZM441.786 228.158s0-4.718-6.605-11.323-10.851-10.379-10.851-10.379-3.303 10.851 2.83 17.456c6.133 6.605 14.625 12.738 14.625 12.738v-8.492h.001Z" fill="#11B06C"/><path d="M450.956 206.73s.499-4.691 7.764-10.561c7.266-5.87 11.887-9.175 11.887-9.175s2.137 11.139-4.659 17.059c-6.797 5.92-15.889 11.122-15.889 11.122l.897-8.445ZM439.376 241.526s.989-4.613 8.831-9.688c7.842-5.074 12.785-7.875 12.785-7.875s.956 11.302-6.425 16.475c-7.381 5.173-16.97 9.391-16.97 9.391l1.779-8.303ZM441.553 279.465s0-4.718 6.605-11.323 10.851-10.379 10.851-10.379 3.302 10.851-2.831 17.456c-6.133 6.605-14.625 12.738-14.625 12.738v-8.492Z" fill="#11B06C"/><path d="M441.443 288.725s.671-4.67-4.929-12.147c-5.599-7.476-9.266-11.816-9.266-11.816s-4.811 10.271.321 17.681c5.132 7.409 12.667 14.687 12.667 14.687l1.207-8.405ZM434.93 316.169s0-4.718 6.605-11.323 10.851-10.379 10.851-10.379 3.303 10.851-2.831 17.456c-6.133 6.605-14.625 12.738-14.625 12.738v-8.492ZM439.341 341.05s-1.195-4.564 3.522-12.626c4.717-8.063 7.869-12.789 7.869-12.789s5.943 9.661 1.683 17.604-10.922 16.027-10.922 16.027l-2.152-8.216Z" fill="#11B06C"/><path d="M451.97 197.485c-.387 5.043-.96 10.26-1.809 14.649-2.611 13.49-9.138 22.193-11.749 34.377-2.611 12.184 4.884 27.881 2.877 43.531-2.007 15.65-8.099 24.353-6.358 34.797 1.741 10.444 10.879 38.729 10.879 38.729" fill="#11B06C"/><path d="M451.97 197.485c-.387 5.043-.96 10.26-1.809 14.649-2.611 13.49-9.138 22.193-11.749 34.377-2.611 12.184 4.884 27.881 2.877 43.531-2.007 15.65-8.099 24.353-6.358 34.797 1.741 10.444 10.879 38.729 10.879 38.729M450.891 209.865l7.118-5.462M451.222 203.575l-2.979-5.297" stroke="#263238" stroke-width=".5" stroke-miterlimit="10" stroke-linecap="round" stroke-linejoin="round"/><path d="M438.807 245.952s5.959-4.47 12.084-8.939l-12.084 8.939Z" fill="#11B06C"/><path d="M438.807 245.952s5.959-4.47 12.084-8.939" stroke="#263238" stroke-width=".5" stroke-miterlimit="10" stroke-linecap="round" stroke-linejoin="round"/><path d="M441.786 236.65s-4.965-9.735-10.593-16.191l10.593 16.191Z" fill="#11B06C"/><path d="M441.786 236.65s-4.965-9.735-10.593-16.191" stroke="#263238" stroke-width=".5" stroke-miterlimit="10" stroke-linecap="round" stroke-linejoin="round"/><path d="M441.787 286.176s4.635-9.104 12.746-17.05l-12.746 17.05Z" fill="#11B06C"/><path d="M441.787 286.176s4.635-9.104 12.746-17.05" stroke="#263238" stroke-width=".5" stroke-miterlimit="10" stroke-linecap="round" stroke-linejoin="round"/><path d="M440.628 292.798s-2.98-7.118-6.456-12.25c-3.476-5.131-3.973-5.794-3.973-5.794" fill="#11B06C"/><path d="M440.628 292.798s-2.98-7.118-6.456-12.25c-3.476-5.131-3.973-5.794-3.973-5.794" stroke="#263238" stroke-width=".5" stroke-miterlimit="10" stroke-linecap="round" stroke-linejoin="round"/><path d="M434.93 324.839s2.387-6.053 5.367-10.853c2.979-4.8 6.952-9.104 6.952-9.104" fill="#11B06C"/><path d="M434.93 324.839s2.387-6.053 5.367-10.853c2.979-4.8 6.952-9.104 6.952-9.104" stroke="#263238" stroke-width=".5" stroke-miterlimit="10" stroke-linecap="round" stroke-linejoin="round"/><path d="M441.491 349.266s-.698-5.649 1.785-10.45c2.483-4.8 5.297-11.091 6.456-13.574" fill="#11B06C"/><path d="M441.491 349.266s-.698-5.649 1.785-10.45c2.483-4.8 5.297-11.091 6.456-13.574" stroke="#263238" stroke-width=".5" stroke-miterlimit="10" stroke-linecap="round" stroke-linejoin="round"/><path d="M408.12 261.722s-.512-2.958 2.913-7.817 5.678-7.687 5.678-7.687 3.249 6.446.12 11.254-7.788 9.575-7.788 9.575l-.923-5.325ZM417.329 279.158s-.512-2.958 2.913-7.817 5.678-7.687 5.678-7.687 3.249 6.446.12 11.254-7.789 9.576-7.789 9.576l-.922-5.326Z" fill="#11B06C"/><path d="M409.253 266.716s-.822-2.888-6.015-5.78c-5.194-2.892-8.45-4.463-8.45-4.463s-.131 7.217 4.774 10.192c4.905 2.974 11.171 5.249 11.171 5.249l-1.48-5.198ZM420.291 287.279s-1.121-2.785-6.589-5.116c-5.469-2.331-8.872-3.551-8.872-3.551s.628 7.191 5.818 9.634c5.19 2.443 11.661 4.047 11.661 4.047l-2.018-5.014ZM423.045 311.305s-.512-2.958-5.371-6.383-7.931-5.33-7.931-5.33-.893 7.163 3.67 10.639c4.563 3.476 10.554 6.4 10.554 6.4l-.922-5.326Z" fill="#11B06C"/><path d="M424.119 317.1s-.927-2.856 1.772-8.152c2.699-5.296 4.528-8.415 4.528-8.415s4.132 5.919 1.718 11.122c-2.414 5.203-6.349 10.585-6.349 10.585l-1.669-5.14ZM432.41 340.964s.342-2.983 4.998-6.68c4.656-3.696 7.614-5.774 7.614-5.774s1.301 7.1-3.057 10.831c-4.357 3.731-10.172 6.992-10.172 6.992l.617-5.369ZM431.183 333.603s-.512-2.958-5.371-6.383-7.931-5.331-7.931-5.331-.893 7.163 3.67 10.639c4.563 3.476 10.554 6.4 10.554 6.4l-.922-5.325ZM431.118 349.684s.254-2.992-3.579-7.535c-3.833-4.544-6.322-7.165-6.322-7.165s-2.678 6.703.856 11.222c3.534 4.518 8.589 8.865 8.589 8.865l.456-5.387Z" fill="#11B06C"/><path d="M407.613 261.029c.79 3.12 1.716 6.33 2.725 8.989 3.102 8.176 8.14 12.925 11.1 20.282 2.96 7.357-.036 18.014 2.921 27.61s7.723 14.392 7.765 21.13c.042 6.738-2.618 25.467-2.618 25.467" fill="#11B06C"/><path d="M407.613 261.029c.79 3.12 1.716 6.33 2.725 8.989 3.102 8.176 8.14 12.925 11.1 20.282 2.96 7.357-.036 18.014 2.921 27.61s7.723 14.392 7.765 21.13c.042 6.738-2.618 25.467-2.618 25.467M409.634 268.675l-5.057-2.653M408.743 264.766l1.294-3.645" stroke="#263238" stroke-width=".5" stroke-miterlimit="10" stroke-linecap="round" stroke-linejoin="round"/><path d="M421.129 289.992s-4.222-2.156-8.548-4.294l8.548 4.294Z" fill="#11B06C"/><path d="M421.129 289.992s-4.222-2.156-8.548-4.294" stroke="#263238" stroke-width=".5" stroke-miterlimit="10" stroke-linecap="round" stroke-linejoin="round"/><path d="M418.251 284.483s2.057-6.644 4.885-11.303l-4.885 11.303Z" fill="#11B06C"/><path d="M418.251 284.483s2.057-6.644 4.885-11.303" stroke="#263238" stroke-width=".5" stroke-miterlimit="10" stroke-linecap="round" stroke-linejoin="round"/><path d="M423.627 315.539s-3.895-5.206-9.844-9.308l9.844 9.308Z" fill="#11B06C"/><path d="M423.627 315.539s-3.895-5.206-9.844-9.308" stroke="#263238" stroke-width=".5" stroke-miterlimit="10" stroke-linecap="round" stroke-linejoin="round"/><path d="M425.073 319.566s1.096-4.787 2.718-8.382c1.623-3.595 1.862-4.064 1.862-4.064" fill="#11B06C"/><path d="M425.073 319.566s1.096-4.787 2.718-8.382c1.623-3.595 1.862-4.064 1.862-4.064" stroke="#263238" stroke-width=".5" stroke-miterlimit="10" stroke-linecap="round" stroke-linejoin="round"/><path d="M431.895 344.151s3.351-4.108 5.438-5.645a29.019 29.019 0 0 0 3.531-3.07" fill="#11B06C"/><path d="M431.895 344.151s3.351-4.108 5.438-5.645a29.019 29.019 0 0 0 3.531-3.07" stroke="#263238" stroke-width=".5" stroke-miterlimit="10" stroke-linecap="round" stroke-linejoin="round"/><path d="M432.124 339.04s-2.154-3.536-4.544-6.223c-2.389-2.687-5.348-4.954-5.348-4.954" fill="#11B06C"/><path d="M432.124 339.04s-2.154-3.536-4.544-6.223c-2.389-2.687-5.348-4.954-5.348-4.954" stroke="#263238" stroke-width=".5" stroke-miterlimit="10" stroke-linecap="round" stroke-linejoin="round"/><path d="M430.661 355.069s-.176-3.618-2.254-6.359-4.526-6.38-5.522-7.811" fill="#11B06C"/><path d="M430.661 355.069s-.176-3.618-2.254-6.359-4.526-6.38-5.522-7.811" stroke="#263238" stroke-width=".5" stroke-miterlimit="10" stroke-linecap="round" stroke-linejoin="round"/><path d="M456.178 397.051h-37.124a3.041 3.041 0 0 1-3.041-3.041v-32.769h43.206v32.769a3.042 3.042 0 0 1-3.041 3.041Z" fill="#263238"/><path d="M363.052 327.307s5.242-13.106 1.906-40.275c-1.464-11.923-.42-36.423-16.725-37.218-17.404-.849-24.509.878-41.949 1.076-62.911.715-109.175 6.992-147.53 3.293-30.836-2.974-57.43-7.864-68.392 3.098-10.962 10.962-10.009 34.315-9.055 38.843.953 4.528 8.102 35.507 8.102 35.507l271.975-1.225 1.668-3.099Z" fill="#999" stroke="#263238" stroke-miterlimit="10" stroke-linecap="round" stroke-linejoin="round"/><path d="M92.984 319.477s-5.243-20.97-13.821-26.69c-8.579-5.719-19.779.477-29.072 9.532-9.294 9.055-11.915 19.779-8.102 37.651 3.813 17.872 15.013 44.324 18.349 56.239 3.336 11.915 3.336 18.111 14.536 21.924 11.2 3.813 21.924 4.051 28.834-5.481 6.911-9.532 5.004-53.379-.477-69.822-5.481-16.443-10.247-23.353-10.247-23.353Z" fill="#B2B2B2" stroke="#263238" stroke-miterlimit="10" stroke-linecap="round" stroke-linejoin="round"/><path d="M92.031 411.937c-4.766-9.055-19.064-73.634-18.826-82.451.238-8.817-6.911-23.592-15.728-24.783-7.268-.982-13.075 5.966-14.892 8.439-2.84 6.993-3.022 15.465-.597 26.83 3.813 17.872 3.335 44.877 6.671 56.792 3.336 11.915 3.336 18.111 14.536 21.924 7.37 2.509 26.212 2.916 32.218.563-.822-2.292-2.046-4.775-3.382-7.314Z" fill="#8A8A8A" stroke="#263238" stroke-miterlimit="10" stroke-linecap="round" stroke-linejoin="round"/><path d="M348.709 319.075s5.537-20.97 14.598-26.689c9.061-5.719 20.89.477 30.706 9.532 9.816 9.055 12.585 19.779 8.557 37.651-4.028 17.872-15.856 44.324-19.38 56.239-3.524 11.915-3.524 18.111-15.353 21.923-11.829 3.813-23.155 4.051-30.454-5.481-7.299-9.532-5.286-53.379.503-69.822 5.789-16.442 10.823-23.353 10.823-23.353Z" fill="#B2B2B2" stroke="#263238" stroke-miterlimit="10" stroke-linecap="round" stroke-linejoin="round"/><path d="M349.716 412.858c5.034-9.167 20.135-74.542 19.883-83.468-.252-8.926 7.299-23.883 16.611-25.089 7.677-.994 13.81 6.039 15.729 8.543 3 7.079 3.192 15.655.631 27.16-4.027 18.093-10.184 44.87-13.707 56.932-3.524 12.062-3.524 18.334-15.353 22.194-7.784 2.54-21.023 3.512-27.367 1.13.869-2.317 2.161-4.831 3.573-7.402Z" fill="#8A8A8A" stroke="#263238" stroke-miterlimit="10" stroke-linecap="round" stroke-linejoin="round"/><path d="M369.724 359.716s-5.957 37.003-9.77 49.394c-3.813 12.392-2.621 12.392-9.055 12.868-6.434.477-250.528-.204-258.153-1.396-7.625-1.192-11.677-6.911-13.821-15.013-2.145-8.102-4.289-44.866-4.289-44.866l284.843-.987h10.245Z" fill="#999" stroke="#263238" stroke-miterlimit="10" stroke-linecap="round" stroke-linejoin="round"/><path d="M74.648 366.559s1.373 4.118 6.405 5.033c5.033.915 134.059 2.288 138.177 2.288 4.118 0 109.352 0 126.281-1.373 16.929-1.373 25.548-3.62 24.213-12.791-1.336-9.171-.878-1.85-.878-1.85l-296.944 3.66 2.746 5.033Z" fill="#263238"/><path d="M93.699 318.285s-18.349 12.391-23.592 18.111c-5.243 5.719-2.383 10.247-1.906 14.536.477 4.289 2.621 13.821 8.817 17.158 6.196 3.336 83.166 1.906 127.967 3.336 44.8 1.43 141.148-.272 153.063-3.132 11.915-2.86 14.747-17.637 15.462-25.977.715-8.34-7.837-20.015-12.603-21.444-4.766-1.429-44.399-1.634-88.484-.681-44.085.953-64.293 4.793-114.574 3.84-50.281-.954-52.712-7.891-64.15-5.747Z" fill="#B2B2B2"/><mask id="b" style="mask-type:luminance" maskUnits="userSpaceOnUse" x="66" y="317" width="308" height="55"><path d="M93.699 318.285s-18.349 12.391-23.592 18.111c-5.243 5.719-2.383 10.247-1.906 14.536.477 4.289 2.621 13.821 8.817 17.158 6.196 3.336 83.166 1.906 127.967 3.336 44.8 1.43 141.148-.272 153.063-3.132 11.915-2.86 14.747-17.637 15.462-25.977.715-8.34-7.837-20.015-12.603-21.444-4.766-1.429-44.399-1.634-88.484-.681-44.085.953-64.293 4.793-114.574 3.84-50.281-.954-52.712-7.891-64.15-5.747Z" fill="#fff"/></mask><g mask="url(#b)"><path d="M68.201 350.932c.477 4.289 2.621 13.821 8.817 17.158 6.196 3.336 83.166 1.906 127.967 3.336 44.8 1.43 141.148-.272 153.063-3.132 11.915-2.86 19.064-14.298 19.779-22.639.097-1.135-.064-2.397-.416-3.729-1.681 1.678-4.916-.135-8.741-.685-8.493-1.223-97.829 4.338-164.695 4.338-72.604 0-96.268 0-132.19-6.91-5.354-1.03-1.678-2.274-1.678-2.274-5.243 5.72-2.383 10.248-1.906 14.537Z" fill="#999"/></g><path d="M93.699 318.285s-18.349 12.391-23.592 18.111c-5.243 5.719-2.383 10.247-1.906 14.536.477 4.289 2.621 13.821 8.817 17.158 6.196 3.336 83.166 1.906 127.967 3.336 44.8 1.43 141.148-.272 153.063-3.132 11.915-2.86 14.747-17.637 15.462-25.977.715-8.34-7.837-20.015-12.603-21.444-4.766-1.429-44.399-1.634-88.484-.681-44.085.953-64.293 4.793-114.574 3.84-50.281-.954-52.712-7.891-64.15-5.747Z" stroke="#263238" stroke-miterlimit="10" stroke-linecap="round" stroke-linejoin="round"/><path d="m223.41 255.141-.369 67.52s-2.952 18.448-2.583 21.031c.369 2.583.369 27.672.369 27.672" stroke="#263238" stroke-miterlimit="10" stroke-linecap="round" stroke-linejoin="round"/><path d="M103.328 286.179s1.599-.2 4.995-4.196c3.397-3.997 7.193-6.994 10.79-6.794 3.597.2-2.997 2.797-2.997 2.797s6.194-1.598 10.59.6-1.798 4.196-1.798 4.196 7.194 2.198 6.794 5.195c-.4 2.997-1.798 2.198-10.391 2.198-8.592 0-12.988 2.198-16.585.999-3.596-1.199-5.994-1.598-1.398-4.995Z" fill="#263238" stroke="#263238" stroke-miterlimit="10" stroke-linecap="round" stroke-linejoin="round"/><path d="M91.362 247.401s5.802 3.061 7.686 6.123c1.885 3.062 0 5.732 4.374 6.238 2.443.283 5.654.236 5.654 2.591 0 2.356-.236 3.298-.236 3.298s2.12 8.48 1.884 10.365c-.235 1.885-8.245 4.24-8.245 4.24s-.471 3.062 1.178 5.182c1.649 2.12 9.423 8.48 10.6 9.423 1.178.942-22.85 3.769-22.85 3.769s-5.418-11.307-12.721-15.312c-7.302-4.005-10.836-3.769-11.072-7.774-.236-4.005 6.596-18.61 12.956-23.321 6.362-4.71 10.792-4.822 10.792-4.822Z" fill="#fff" stroke="#263238" stroke-miterlimit="10" stroke-linecap="round" stroke-linejoin="round"/><path d="M99.644 262.16a10.77 10.77 0 0 1-1.099.492c.024.069.036.133.065.203.33.808.852 1.359 1.166 1.231.314-.128.302-.887-.028-1.696a3.724 3.724 0 0 0-.104-.23Z" fill="#263238"/><path d="M97.686 264.236s1.519.175 3.039-.584l-3.039.584Z" fill="#fff"/><path d="M97.686 264.236s1.519.175 3.039-.584" stroke="#263238" stroke-width=".5" stroke-miterlimit="10" stroke-linecap="round" stroke-linejoin="round"/><path d="M102.479 280.257s-5.386 1.278-9.815.626c0 0 6.931 4.255 10.044 3.944l-.229-4.57Z" fill="#263238" stroke="#263238" stroke-miterlimit="10" stroke-linecap="round" stroke-linejoin="round"/><path d="m98.329 259.736 1.324 2.146s-1.966 1.594-3.769 1.885" fill="#fff"/><path d="m98.329 259.736 1.324 2.146s-1.966 1.594-3.769 1.885" stroke="#263238" stroke-miterlimit="10" stroke-linecap="round" stroke-linejoin="round"/><path d="M101.263 269.939s.912 1.954 4.69.521l-4.69-.521Z" fill="#fff"/><path d="M101.263 269.939s.912 1.954 4.69.521" stroke="#263238" stroke-miterlimit="10" stroke-linecap="round" stroke-linejoin="round"/><path d="M96.573 256.13s-2.866-.521-4.299 2.866l4.299-2.866Z" fill="#fff"/><path d="M96.573 256.13s-2.866-.521-4.299 2.866" stroke="#263238" stroke-miterlimit="10" stroke-linecap="round" stroke-linejoin="round"/><path d="M94.358 245.447s-1.954 11.334-4.039 18.239c-2.084 6.905-4.56 11.074-5.211 13.679-.651 2.605 2.605 9.12 1.563 11.855-1.042 2.736-1.954-1.303-7.947-4.69a197.652 197.652 0 0 1-13.81-8.598c-12.533-8.549 8.804-31.522 18.37-32.57 9.511-1.042 11.595-.781 11.074 2.085Z" fill="#263238"/><mask id="c" style="mask-type:luminance" maskUnits="userSpaceOnUse" x="61" y="242" width="34" height="49"><path d="M94.358 245.447s-1.954 11.334-4.039 18.239c-2.084 6.905-4.56 11.074-5.211 13.679-.651 2.605 2.605 9.12 1.563 11.855-1.042 2.736-1.954-1.303-7.947-4.69a197.652 197.652 0 0 1-13.81-8.598c-12.533-8.549 8.804-31.522 18.37-32.57 9.511-1.042 11.595-.781 11.074 2.085Z" fill="#fff"/></mask><g mask="url(#c)"><path d="M94.925 243.111s-6.537 30.509-27.084 37.98" stroke="#666" stroke-miterlimit="10" stroke-linecap="round" stroke-linejoin="round"/></g><mask id="d" style="mask-type:luminance" maskUnits="userSpaceOnUse" x="61" y="242" width="34" height="49"><path d="M94.358 245.447s-1.954 11.334-4.039 18.239c-2.084 6.905-4.56 11.074-5.211 13.679-.651 2.605 2.605 9.12 1.563 11.855-1.042 2.736-1.954-1.303-7.947-4.69a197.652 197.652 0 0 1-13.81-8.598c-12.533-8.549 8.804-31.522 18.37-32.57 9.511-1.042 11.595-.781 11.074 2.085Z" fill="#fff"/></mask><g mask="url(#d)"><path d="M90.567 241.554s-9.028 27.396-27.396 33.933" stroke="#666" stroke-miterlimit="10" stroke-linecap="round" stroke-linejoin="round"/></g><mask id="e" style="mask-type:luminance" maskUnits="userSpaceOnUse" x="61" y="242" width="34" height="49"><path d="M94.358 245.447s-1.954 11.334-4.039 18.239c-2.084 6.905-4.56 11.074-5.211 13.679-.651 2.605 2.605 9.12 1.563 11.855-1.042 2.736-1.954-1.303-7.947-4.69a197.652 197.652 0 0 1-13.81-8.598c-12.533-8.549 8.804-31.522 18.37-32.57 9.511-1.042 11.595-.781 11.074 2.085Z" fill="#fff"/></mask><g mask="url(#e)"><path d="M73.134 246.224s-.623 19.924-11.519 28.018" stroke="#666" stroke-miterlimit="10" stroke-linecap="round" stroke-linejoin="round"/></g><path d="M94.358 245.447s-1.954 11.334-4.039 18.239c-2.084 6.905-4.56 11.074-5.211 13.679-.651 2.605 2.605 9.12 1.563 11.855-1.042 2.736-1.954-1.303-7.947-4.69a197.652 197.652 0 0 1-13.81-8.598c-12.533-8.549 8.804-31.522 18.37-32.57 9.511-1.042 11.595-.781 11.074 2.085Z" stroke="#263238" stroke-miterlimit="10" stroke-linecap="round" stroke-linejoin="round"/><path d="M88.495 274.238s-4.429-3.908-7.165-2.736c-2.736 1.173-.521 6.123 1.173 6.514s3.518.782 5.472-.13" fill="#fff"/><path d="M88.495 274.238s-4.429-3.908-7.165-2.736c-2.736 1.173-.521 6.123 1.173 6.514s3.518.782 5.472-.13" stroke="#263238" stroke-miterlimit="10" stroke-linecap="round" stroke-linejoin="round"/><path opacity=".3" d="M57.815 299.513S70.5 305.5 73 312s3 13.5 7.5 16 12.5 7 22 9 17 1.5 17 1.5 17.5 1 30.5 1 33-4 33-4 14.5 1.5 23.5-16.5 42.5-43 45-62c0 0-40.5 19.5-46.5 28s-46.5 30.5-67.5 30.5-45.5-16-59-25-21.371.025-20.685 9.013Z" fill="#000"/><path d="M103.152 317.296s-8.208-16.415-14.265-25.405c-6.058-8.989-11.53-13.288-18.174-16.806-6.644-3.518-10.357-4.69-13.679-6.253-3.322-1.563-4.299-.782-4.69 6.058s-1.954 18.76 5.472 24.623c7.426 5.863 10.748 5.667 15.243 7.817 4.495 2.15 6.84 8.012 10.553 15.633 3.713 7.621 15.243 7.621 19.737 7.23 4.493-.39 2.539-8.403-.197-12.897Z" fill="#fff" stroke="#263238" stroke-miterlimit="10" stroke-linecap="round" stroke-linejoin="round"/><path d="M180.733 293.52s9.641-29.183 13.288-32.049c3.648-2.866 36.999-12.507 49.767-15.373 12.767-2.866 29.443-15.373 31.267-17.197 1.824-1.824 5.993-3.908 4.69 1.303s-2.606 7.817-5.211 10.944c-2.606 3.127-1.042 5.732-2.606 8.598-1.563 2.866-4.43 2.866-8.859.261s-6.253-2.606-11.465 1.303c-5.211 3.908-14.852 13.289-25.274 16.415-10.422 3.127-13.81 3.648-13.81 3.648s-4.69 22.147-10.943 31.788c-6.253 9.641-8.598 14.07-18.76 12.246-10.162-1.824-5.732-17.457-5.211-19.021.522-1.563 3.127-2.866 3.127-2.866Z" fill="#263238" stroke="#263238" stroke-miterlimit="10" stroke-linecap="round" stroke-linejoin="round"/><path d="M271.929 249.746c1.563-2.866 0-5.472 2.606-8.598 2.605-3.127 3.908-5.732 5.211-10.944 1.303-5.211-2.866-3.127-4.69-1.303-1.482 1.482-12.765 10.014-23.792 14.7 1.217 1.698 2.446 3.736 3.159 5.799 3.244-1.882 5.123-1.467 8.648.607 4.428 2.605 7.294 2.605 8.858-.261Z" fill="#fff" stroke="#263238" stroke-miterlimit="10" stroke-linecap="round" stroke-linejoin="round"/><path d="M275.055 228.901c-.159.159-.438.404-.812.713a8.313 8.313 0 0 0 4.905 2.784c.202-.681.4-1.405.597-2.194 1.303-5.211-2.866-3.127-4.69-1.303Z" fill="#A8A8A8" stroke="#263238" stroke-miterlimit="10" stroke-linecap="round" stroke-linejoin="round"/><path d="M160.931 332.343s27.359 4.951 37.521 1.303c10.162-3.648 14.331-14.852 17.197-22.929 2.866-8.077 3.387-23.19 4.951-27.619 1.563-4.43 2.085-5.732 2.085-5.732s11.986-5.472 19.021-9.12c7.035-3.648 12.767-17.718 16.936-20.845 4.169-3.127 4.69 1.042 7.035-1.303 2.345-2.345 6.514-11.725 7.296-17.718s-2.866-9.38-4.43-9.38c-1.563 0-1.303 3.127-3.908 7.035-2.606 3.908-6.514 11.725-10.422 14.331-3.908 2.606-22.408 13.288-29.443 17.197-7.035 3.908-16.155 5.993-20.845 14.07-4.69 8.077-12.507 25.014-13.549 26.837-1.042 1.824-2.606 3.908-2.606 3.908s-3.127 1.303-8.598 2.866c-5.472 1.563-11.986.782-15.112 3.908-3.129 3.128-3.129 23.191-3.129 23.191Z" fill="#263238" stroke="#263238" stroke-miterlimit="10" stroke-linecap="round" stroke-linejoin="round"/><path d="M192.269 294.99s13.445-27.966 15.596-28.504c2.151-.538 30.655-16.134 30.655-16.134M179.43 310.456s3.648 7.296 4.43 11.725M181.515 311.238s2.606.782 4.951 6.775M187.247 319.836s.521 2.084 1.042 3.387" stroke="#fff" stroke-miterlimit="10" stroke-linecap="round" stroke-linejoin="round"/><path d="M268.542 219c-1.563 0-1.303 3.127-3.908 7.035-2.606 3.908-6.514 11.725-10.422 14.331-.786.524-2.168 1.378-3.922 2.434 1.988.858 4.033 3.059 5.452 7.92 1.037-1.469 2.005-2.647 2.9-3.319 4.169-3.127 4.69 1.042 7.035-1.303 2.345-2.345 6.514-11.725 7.296-17.718.78-5.993-2.868-9.38-4.431-9.38Z" fill="#fff" stroke="#263238" stroke-miterlimit="10" stroke-linecap="round" stroke-linejoin="round"/><path d="M268.542 219c-1.259 0-1.337 2.03-2.681 4.862 1.631.621 4.603 1.917 7.163 3.915.467-5.612-2.973-8.777-4.482-8.777Z" fill="#A8A8A8" stroke="#263238" stroke-miterlimit="10" stroke-linecap="round" stroke-linejoin="round"/><path d="M144.564 286.751s-3.217 1.678-4.616 3.357c-1.399 1.678-5.035 8.253-5.035 8.253l5.595 5.875 4.056-14.127 2.098-1.539-2.098-1.819Z" fill="#C6FF00" stroke="#263238" stroke-miterlimit="10" stroke-linecap="round" stroke-linejoin="round"/><path d="M93.772 292.087s13.875-2.736 22.473-2.931c8.599-.195 11.334-1.368 14.266 1.368 2.931 2.736 10.748 11.139 12.116 12.507 1.368 1.368 25.991-1.368 25.991-1.368s2.345 5.863.782 15.634c-1.563 9.771-7.621 15.243-7.621 15.243s-16.43 2.4-27.359 1.563c-20.92-1.603-28.644-9.154-33.92-15.603-5.276-6.449-9.464-20.355-9.66-22.896-.195-2.54 2.932-3.517 2.932-3.517Z" fill="#0046D6" stroke="#263238" stroke-miterlimit="10" stroke-linecap="round" stroke-linejoin="round"/><path d="M146.079 291.175s-10.162 1.303-11.204 4.169c-1.042 2.866 4.169 22.929 5.732 23.971 1.563 1.042 5.472-1.563 5.472-1.563s9.12 1.303 22.408.521c13.288-.782 17.718-7.035 19.281-7.296 1.563-.26 5.732-1.303 5.472-2.606-.261-1.303-4.169-13.81-9.901-18.239s-14.591-5.472-22.669-2.866c-8.077 2.606-14.591 3.909-14.591 3.909Z" fill="#fff" stroke="#263238" stroke-miterlimit="10" stroke-linecap="round" stroke-linejoin="round"/><path d="m142.04 290.914 2.156 10.041 31.456-3.983-6.253-9.184-27.359 3.126Z" fill="#fff" stroke="#263238" stroke-miterlimit="10" stroke-linecap="round" stroke-linejoin="round"/><path d="m159.486 291.529.561 1.422 1.949-.274-.526-1.417-1.984.269ZM162.174 293.157l-1.938.272.681 1.726 1.901-.264-.644-1.734ZM150.407 296.622l1.607-.225-.568-1.734-1.568.22.529 1.739ZM161.977 291.191l.526 1.415 1.924-.27-.513-1.408-1.937.263ZM151.31 292.641l.481 1.468 2.249-.315-.508-1.455-2.222.302ZM156.792 291.896l.566 1.432 2.18-.306-.562-1.423-2.184.297ZM154.037 292.27l.507 1.454 2.305-.325-.567-1.434-2.245.305ZM160.408 295.227l-.681-1.726-2.18.306.681 1.724 2.18-.304ZM163.503 295.3l.318.856 1.914-.234-.324-.889-1.908.267ZM166.955 292.486l-1.847.259.634 1.737 1.941-.27-.728-1.726ZM162.681 293.086l.644 1.733 1.91-.266-.633-1.737-1.921.27ZM168.789 295.55l2.461-.3-.519-.958-2.336.325.394.933ZM152.676 296.81l.222.678 2.33-.284-.249-.715-2.303.321ZM154.207 294.275l-2.258.318.569 1.734 2.293-.319-.604-1.733ZM157.038 293.878l-2.326.326.604 1.734 2.402-.336-.68-1.724ZM158.417 296.01l.303.768 2.195-.268-.318-.805-2.18.305ZM164.245 290.379l1.722-.234-.238-.566-1.687.244.203.556ZM153.869 291.788l2.224-.302-.192-.485-2.195.318.163.469ZM159.297 291.051l1.994-.272-.197-.529-1.999.289.202.512ZM156.603 291.417l2.184-.297-.201-.508-2.176.316.193.489ZM151.152 292.157l2.212-.301-.162-.464-2.197.318.147.447ZM150.648 292.226l-.145-.443L149 292l.131.432 1.517-.206ZM152.391 297.55l-.219-.669-1.618.226.196.643 1.641-.2ZM166.48 290.075l1.832-.249-.312-.576-1.76.255.24.57ZM149.73 294.399l1.558-.218-.482-1.472-1.527.207.451 1.483ZM167.884 294.689l-1.967.274.327.897 2.03-.247-.39-.924ZM161.799 290.711l1.939-.264-.201-.551-1.937.28.199.535ZM157.907 296.08l-2.423.339.252.723 2.472-.301-.301-.761ZM162.996 295.37l-1.89.264.322.814 1.883-.23-.315-.848ZM164.42 290.859l.513 1.406 1.821-.255-.585-1.388-1.749.237ZM169.555 292.121l-2.088.293.727 1.727 2.282-.319-.921-1.701ZM167.266 291.938l2.035-.286-.734-1.356-1.886.256.585 1.386Z" fill="#263238"/><path d="m175.652 296.972 1.759-28.922-6.84-3.908-1.172 23.646 6.253 9.184Z" fill="#fff" stroke="#263238" stroke-miterlimit="10" stroke-linecap="round" stroke-linejoin="round"/><path d="m171.656 266.928-.906 20.572 3.5 5 1.25-23-3.844-2.572Z" fill="#0046D6" stroke="#263238" stroke-width=".5" stroke-miterlimit="10" stroke-linecap="round" stroke-linejoin="round"/><path d="M157.712 283.378s1.108-.487 2.462.609 4.309 3.531 3.94 4.14c-.369.609-.862.609-1.601-.122-.738-.73-4.801-4.627-4.801-4.627Z" fill="#fff" stroke="#263238" stroke-miterlimit="10" stroke-linecap="round" stroke-linejoin="round"/><path d="M154.635 283.394s2.238-.839 3.077 0 6.294 5.175 5.875 6.015c-.42.839-1.119.14-1.958.14-.84-.001-6.994-6.155-6.994-6.155Z" fill="#fff" stroke="#263238" stroke-miterlimit="10" stroke-linecap="round" stroke-linejoin="round"/><path d="M143.445 289.409s-1.539-1.119 1.678-3.077c3.217-1.958 7.134-3.637 8.532-3.497 1.399.14 7.973 6.714 7.973 6.714s.28.839-.559 1.119c-.839.28-6.155-3.637-7.134-3.637-.979 0-4.196 1.958-5.175 2.238-.979.279-3.217 1.958-5.315.14Z" fill="#fff" stroke="#263238" stroke-miterlimit="10" stroke-linecap="round" stroke-linejoin="round"/><path d="M149.04 287.31s7.413 2.798 7.833 2.798c.42 0-.14 1.119-1.399 1.259-1.259.14-4.336-1.539-5.455-.979-1.119.56-3.381.382-5.047.331-1.666-.051-1.667-2.01-1.667-2.01" fill="#fff"/><path d="M149.04 287.31s7.413 2.798 7.833 2.798c.42 0-.14 1.119-1.399 1.259-1.259.14-4.336-1.539-5.455-.979-1.119.56-3.381.382-5.047.331-1.666-.051-1.667-2.01-1.667-2.01" stroke="#263238" stroke-miterlimit="10" stroke-linecap="round" stroke-linejoin="round"/><path d="M103.129 292.868s-6.449-4.495-12.898-2.54c-6.449 1.954-4.885 10.748-.195 19.933 4.69 9.185 23.646 27.163 26.772 29.117 3.127 1.954 6.058 0 8.403-3.713 2.345-3.713 7.621-25.795 9.185-29.313 1.563-3.517 2.345-5.667 2.345-5.667s3.127-.782 4.885-2.15c1.759-1.368 4.495-3.518 4.495-3.518s7.035-2.931 7.621-3.322c.586-.391-.195-.977-.977-.977h-8.794c-3.909 0-8.989 4.299-10.748 6.253-1.759 1.954-14.07 24.623-14.07 24.623l-15.829-21.691" fill="#0046D6"/><path d="M103.129 292.868s-6.449-4.495-12.898-2.54c-6.449 1.954-4.885 10.748-.195 19.933 4.69 9.185 23.646 27.163 26.772 29.117 3.127 1.954 6.058 0 8.403-3.713 2.345-3.713 7.621-25.795 9.185-29.313 1.563-3.517 2.345-5.667 2.345-5.667s3.127-.782 4.885-2.15c1.759-1.368 4.495-3.518 4.495-3.518s7.035-2.931 7.621-3.322c.586-.391-.195-.977-.977-.977h-8.794c-3.909 0-8.989 4.299-10.748 6.253-1.759 1.954-14.07 24.623-14.07 24.623l-15.829-21.691" stroke="#263238" stroke-miterlimit="10" stroke-linecap="round" stroke-linejoin="round"/><path d="M147.121 295.018s7.035-2.931 7.621-3.322c.586-.391-.195-.977-.977-.977h-8.794c-3.909 0-8.989 4.299-10.748 6.253-.613.681-2.506 3.875-4.712 7.748l5.711 2.06c.062-.162.12-.307.174-.427 1.563-3.517 2.345-5.667 2.345-5.667s3.127-.782 4.885-2.15c1.759-1.368 4.495-3.518 4.495-3.518ZM349.54 162.299H45.873a4.5 4.5 0 0 1-4.5-4.5v-30.931a4.5 4.5 0 0 1 4.5-4.5H349.54a4.5 4.5 0 0 1 4.5 4.5v30.931a4.5 4.5 0 0 1-4.5 4.5Z" fill="#fff" stroke="#263238" stroke-miterlimit="10" stroke-linecap="round" stroke-linejoin="round"/><path d="M349.54 162.299h-39.951v-39.931h39.951a4.5 4.5 0 0 1 4.5 4.5v30.931a4.5 4.5 0 0 1-4.5 4.5Z" fill="#263238" stroke="#263238" stroke-miterlimit="10" stroke-linecap="round" stroke-linejoin="round"/><path d="M66.371 149.611c0 .697-.159 1.232-.477 1.602-.318.371-.777.556-1.377.556-.574 0-1.022-.185-1.344-.556-.322-.371-.483-.905-.483-1.602v-6.238c0-.865-.218-1.53-.656-1.993-.437-.464-1-.695-1.688-.695-.83 0-1.545.32-2.146.96-.6.64-.901 1.472-.901 2.496v5.47c0 .697-.161 1.232-.483 1.602-.322.371-.784.556-1.384.556-.574 0-1.022-.185-1.344-.556-.322-.371-.483-.905-.483-1.602v-14.846c0-.689.157-1.218.47-1.589.313-.371.757-.556 1.331-.556.6 0 1.064.185 1.391.556.327.371.49.9.49 1.589v5.576a4.135 4.135 0 0 1 1.708-1.549c.724-.362 1.585-.543 2.583-.543.662 0 1.276.099 1.841.298a4.634 4.634 0 0 1 1.523.887c.45.393.803.918 1.059 1.576.256.658.384 1.41.384 2.258l-.014 6.343ZM71.708 150.77c-.697-.746-1.046-1.874-1.046-3.384v-6.436h-1.099c-.865 0-1.298-.424-1.298-1.271 0-.362.104-.649.311-.861.207-.212.523-.318.947-.318h1.285l.358-3.059c.141-1.271.737-1.907 1.788-1.907.936 0 1.404.64 1.404 1.92v3.046h1.92c.83 0 1.245.415 1.245 1.245 0 .803-.428 1.205-1.285 1.205h-1.881v5.576c0 .936.113 1.613.338 2.033.225.419.625.629 1.199.629h.159l.874-.04h.079c.353 0 .631.128.834.384.203.256.305.556.305.901 0 .203-.033.382-.099.536a1.26 1.26 0 0 1-.245.384 1.137 1.137 0 0 1-.41.258 3.897 3.897 0 0 1-.497.165 3.55 3.55 0 0 1-.616.086c-.256.018-.474.029-.655.033-.181.004-.422.007-.722.007h-.278c-1.246-.009-2.217-.386-2.915-1.132ZM82.356 150.77c-.698-.746-1.046-1.874-1.046-3.384v-6.436h-1.099c-.865 0-1.298-.424-1.298-1.271 0-.362.104-.649.311-.861.208-.212.523-.318.947-.318h1.285l.358-3.059c.141-1.271.737-1.907 1.788-1.907.936 0 1.404.64 1.404 1.92v3.046h1.92c.83 0 1.245.415 1.245 1.245 0 .803-.428 1.205-1.285 1.205h-1.881v5.576c0 .936.113 1.613.338 2.033.225.419.625.629 1.199.629h.159l.874-.04h.08c.353 0 .631.128.834.384.203.256.305.556.305.901 0 .203-.033.382-.099.536a1.26 1.26 0 0 1-.245.384 1.134 1.134 0 0 1-.411.258 3.846 3.846 0 0 1-.497.165c-.155.039-.36.068-.616.086-.256.018-.475.029-.656.033-.181.004-.422.007-.722.007h-.278c-1.245-.009-2.216-.386-2.914-1.132ZM91.415 156.186c-.309-.366-.464-.898-.464-1.596v-13.866c0-.697.168-1.247.503-1.649.336-.402.79-.603 1.364-.603.565 0 1.007.157 1.324.47.318.313.477.753.477 1.318v.371c.83-1.58 2.291-2.371 4.384-2.371 1.73 0 3.121.634 4.172 1.901 1.051 1.267 1.576 2.938 1.576 5.013 0 2.119-.547 3.774-1.642 4.966-1.095 1.192-2.521 1.788-4.278 1.788-1.995 0-3.395-.724-4.198-2.172v4.834c0 .697-.163 1.229-.49 1.596-.327.366-.795.55-1.404.55-.574 0-1.015-.183-1.324-.55Zm8.012-7.039a2.674 2.674 0 0 0 1.006-.98c.247-.415.431-.878.55-1.391a7.364 7.364 0 0 0 .179-1.669c0-.53-.053-1.04-.159-1.53a5.802 5.802 0 0 0-.503-1.41c-.23-.45-.561-.81-.993-1.079-.433-.269-.936-.404-1.51-.404-1.201 0-2.059.375-2.576 1.126-.516.751-.775 1.854-.775 3.311 0 1.333.28 2.397.841 3.192.561.795 1.384 1.192 2.47 1.192.556 0 1.046-.119 1.47-.358ZM107.155 149.975a1.157 1.157 0 0 1-.04-.96c.057-.141.135-.269.232-.384.097-.115.221-.205.371-.271.15-.066.305-.099.464-.099.238 0 .477.066.715.199.018.009.099.055.245.139.146.084.245.139.298.166l.311.152c.155.075.278.13.371.165l.377.146c.159.062.307.108.444.139.137.031.291.064.464.099.172.035.351.06.536.073.185.013.371.02.556.02.336 0 .651-.024.947-.073.296-.049.576-.13.841-.245.265-.115.475-.28.629-.497.155-.216.232-.47.232-.761 0-.318-.144-.6-.43-.848-.287-.247-.717-.446-1.291-.596l-1.973-.517a58.65 58.65 0 0 1-1.159-.338 12.452 12.452 0 0 1-.973-.344 4.986 4.986 0 0 1-.834-.41 4.412 4.412 0 0 1-.629-.497 2.197 2.197 0 0 1-.477-.629 3.722 3.722 0 0 1-.271-.788 4.384 4.384 0 0 1-.106-1.007c0-.6.13-1.141.391-1.622.26-.481.629-.881 1.106-1.199.477-.318 1.042-.561 1.695-.728a8.716 8.716 0 0 1 2.172-.252c1.475 0 2.909.327 4.304.98.265.124.461.289.589.497.128.208.192.426.192.656 0 .291-.097.545-.291.762-.194.216-.45.324-.768.324-.088 0-.179-.009-.271-.027a1.906 1.906 0 0 1-.417-.132c-1.236-.433-2.287-.649-3.152-.649-.38 0-.731.035-1.053.106-.322.071-.6.201-.834.391a.878.878 0 0 0-.351.708c0 .389.124.678.371.868.247.19.698.364 1.351.523l1.96.49c.724.185 1.335.386 1.834.603.499.216.936.481 1.311.795.375.314.651.687.828 1.119.177.433.265.936.265 1.51 0 .918-.238 1.7-.715 2.344-.477.644-1.115 1.119-1.914 1.424-.799.305-1.719.457-2.761.457-2.057 0-3.827-.521-5.311-1.563a1.13 1.13 0 0 1-.381-.419ZM121.776 141.387c-.393-.371-.589-.848-.589-1.43 0-.539.192-1.004.576-1.397.384-.393.872-.589 1.463-.589.565 0 1.046.19 1.443.569.397.38.596.852.596 1.417 0 .547-.192 1.015-.576 1.404-.384.388-.872.583-1.463.583-.574-.001-1.057-.187-1.45-.557Zm0 9.873a1.912 1.912 0 0 1-.589-1.424c0-.539.192-1.004.576-1.397.384-.393.872-.589 1.463-.589.565 0 1.046.188 1.443.563.397.375.596.85.596 1.424 0 .547-.194 1.018-.583 1.411-.388.393-.874.589-1.457.589-.573-.001-1.056-.193-1.449-.577ZM128.623 153.068a1.04 1.04 0 0 1-.391-.848c0-.168.066-.477.199-.927l5.933-17.561c.124-.397.298-.715.523-.953.225-.238.488-.358.788-.358.344 0 .64.108.887.324.247.216.371.514.371.894 0 .203-.062.499-.185.887l-6.092 18.011c-.194.565-.578.848-1.152.848-.327 0-.621-.106-.881-.317ZM138.939 153.068a1.04 1.04 0 0 1-.391-.848c0-.168.066-.477.199-.927l5.933-17.561c.124-.397.298-.715.523-.953.225-.238.488-.358.788-.358.344 0 .64.108.887.324.247.216.371.514.371.894 0 .203-.062.499-.185.887l-6.092 18.011c-.194.565-.578.848-1.152.848-.327 0-.62-.106-.881-.317ZM163.069 151.193c-.402-.384-.775-1.154-1.119-2.311l-2.371-7.165-2.371 7.165c-.344 1.157-.717 1.927-1.119 2.311-.402.384-.969.576-1.702.576-.592 0-1.079-.214-1.463-.642-.384-.428-.713-1.128-.987-2.099l-2.649-8.37a2.169 2.169 0 0 1-.093-.609c0-.309.077-.587.232-.834a1.49 1.49 0 0 1 .596-.556c.243-.123.506-.185.788-.185.23 0 .448.046.656.139.207.093.4.243.576.45.176.208.305.461.384.762l2.397 8.277 2.424-7.39c.238-.786.523-1.36.854-1.722.331-.362.823-.543 1.477-.543.653 0 1.146.181 1.477.543.331.362.616.936.854 1.722l2.424 7.39 2.397-8.277c.124-.441.335-.777.636-1.007.3-.23.631-.344.993-.344.424 0 .797.146 1.119.437.322.291.483.671.483 1.139 0 .097-.007.196-.02.298a1.662 1.662 0 0 1-.073.311l-2.649 8.37c-.274.971-.603 1.671-.987 2.099-.384.428-.872.642-1.463.642-.732 0-1.299-.193-1.701-.577ZM185.928 151.193c-.402-.384-.775-1.154-1.119-2.311l-2.371-7.165-2.371 7.165c-.344 1.157-.717 1.927-1.119 2.311-.402.384-.969.576-1.702.576-.591 0-1.079-.214-1.463-.642-.384-.428-.713-1.128-.987-2.099l-2.649-8.37a2.169 2.169 0 0 1-.093-.609c0-.309.077-.587.232-.834.155-.247.353-.433.596-.556.243-.123.505-.185.788-.185.23 0 .448.046.656.139.208.093.4.243.576.45.177.208.305.461.384.762l2.397 8.277 2.424-7.39c.238-.786.523-1.36.854-1.722.331-.362.823-.543 1.477-.543.653 0 1.146.181 1.477.543.331.362.616.936.854 1.722l2.424 7.39 2.397-8.277c.124-.441.335-.777.636-1.007.3-.23.631-.344.993-.344.424 0 .797.146 1.119.437.322.291.483.671.483 1.139 0 .097-.007.196-.02.298a1.662 1.662 0 0 1-.073.311l-2.649 8.37c-.274.971-.603 1.671-.987 2.099-.384.428-.872.642-1.463.642-.732 0-1.3-.193-1.701-.577ZM208.786 151.193c-.402-.384-.775-1.154-1.119-2.311l-2.371-7.165-2.371 7.165c-.344 1.157-.717 1.927-1.119 2.311-.402.384-.969.576-1.702.576-.592 0-1.079-.214-1.463-.642-.384-.428-.713-1.128-.987-2.099l-2.649-8.37a2.169 2.169 0 0 1-.093-.609c0-.309.077-.587.232-.834.155-.247.353-.433.596-.556.243-.123.505-.185.788-.185.23 0 .448.046.656.139.207.093.399.243.576.45.176.208.305.461.384.762l2.397 8.277 2.424-7.39c.238-.786.523-1.36.854-1.722.331-.362.823-.543 1.477-.543.653 0 1.146.181 1.477.543.331.362.616.936.854 1.722l2.424 7.39 2.397-8.277c.124-.441.335-.777.636-1.007.3-.23.631-.344.993-.344.424 0 .797.146 1.119.437.322.291.483.671.483 1.139 0 .097-.007.196-.02.298a1.587 1.587 0 0 1-.073.311l-2.649 8.37c-.274.971-.603 1.671-.987 2.099-.384.428-.872.642-1.463.642-.732 0-1.299-.193-1.701-.577Z" fill="#263238"/><path d="m344.603 153.339-9.734-10.646a2.196 2.196 0 0 0-.403-.341 9.984 9.984 0 0 0 1.901-5.859c0-5.543-4.511-10.053-10.054-10.053-5.544 0-10.053 4.51-10.053 10.053 0 5.544 4.509 10.054 10.053 10.054a9.988 9.988 0 0 0 4.895-1.28c.089.168.191.331.326.478l9.734 10.646a2.253 2.253 0 0 0 1.669.735 2.262 2.262 0 0 0 1.666-3.787Zm-26.084-16.847c0-4.297 3.496-7.793 7.793-7.793 4.297 0 7.794 3.496 7.794 7.793 0 4.297-3.496 7.793-7.794 7.793-4.296.001-7.793-3.495-7.793-7.793Z" fill="#fff"/><path d="M173.195 163.317v84.955" stroke="#263238" stroke-miterlimit="10" stroke-linecap="round" stroke-linejoin="round"/><path d="M373.852 471h-3.093v-8.727h3.119c.878 0 1.633.174 2.267.524a3.535 3.535 0 0 1 1.462 1.496c.343.65.515 1.429.515 2.335 0 .909-.172 1.69-.515 2.344a3.546 3.546 0 0 1-1.471 1.504c-.636.349-1.397.524-2.284.524Zm-1.248-1.581h1.172c.545 0 1.004-.097 1.376-.29.375-.196.656-.498.844-.907.19-.412.285-.944.285-1.594 0-.645-.095-1.172-.285-1.581a1.858 1.858 0 0 0-.84-.904c-.372-.193-.831-.289-1.376-.289h-1.176v5.565Zm9.834 1.709c-.673 0-1.253-.137-1.739-.409a2.8 2.8 0 0 1-1.116-1.168c-.262-.506-.392-1.104-.392-1.794 0-.673.13-1.264.392-1.773a2.906 2.906 0 0 1 1.103-1.189c.478-.284 1.037-.426 1.679-.426.432 0 .834.07 1.206.209.375.136.702.342.98.618.282.276.5.622.657 1.04.156.415.234.9.234 1.457v.499h-5.527v-1.125h3.818c0-.262-.057-.493-.17-.695a1.222 1.222 0 0 0-.473-.473 1.356 1.356 0 0 0-.695-.175c-.275 0-.52.064-.733.192-.21.125-.375.294-.494.507a1.44 1.44 0 0 0-.183.703v1.07c0 .324.059.604.179.84.122.235.294.417.515.545.222.128.485.192.789.192.201 0 .386-.029.554-.085.167-.057.311-.143.43-.256.119-.114.21-.253.273-.418l1.679.111c-.085.403-.26.756-.524 1.057-.262.298-.6.531-1.015.699-.412.164-.887.247-1.427.247Zm9.635-4.807-1.662.102a.868.868 0 0 0-.183-.383.972.972 0 0 0-.371-.277 1.26 1.26 0 0 0-.541-.107c-.282 0-.519.06-.712.179-.193.117-.29.273-.29.469 0 .156.063.288.188.396.125.108.339.195.643.26l1.185.239c.636.131 1.111.341 1.423.631.313.289.469.67.469 1.142 0 .429-.126.805-.379 1.129-.25.324-.594.577-1.032.758-.434.179-.936.269-1.504.269-.866 0-1.557-.181-2.071-.541a2.11 2.11 0 0 1-.899-1.483l1.786-.094a.911.911 0 0 0 .392.605c.207.136.473.205.796.205.319 0 .574-.061.767-.184.197-.125.296-.285.299-.481a.502.502 0 0 0-.209-.405c-.136-.108-.347-.19-.631-.247l-1.133-.226c-.639-.128-1.115-.349-1.428-.665-.309-.315-.464-.717-.464-1.206 0-.42.113-.782.341-1.086.23-.304.552-.539.967-.704.418-.164.906-.247 1.466-.247.827 0 1.477.175 1.952.524.477.35.755.826.835 1.428Zm1.292 4.679v-6.545h1.815V471h-1.815Zm.912-7.389a.989.989 0 0 1-.695-.269.87.87 0 0 1-.285-.652c0-.25.095-.464.285-.643a.98.98 0 0 1 .695-.273c.27 0 .5.091.69.273.194.179.29.393.29.643a.86.86 0 0 1-.29.652.97.97 0 0 1-.69.269Zm5.306 9.98c-.588 0-1.092-.081-1.512-.243-.418-.159-.75-.376-.997-.652a2 2 0 0 1-.482-.929l1.679-.226c.051.131.132.253.243.367.111.113.257.204.439.272.184.071.409.107.673.107.395 0 .72-.097.976-.29.258-.19.388-.51.388-.959v-1.197h-.077a1.735 1.735 0 0 1-.972.912c-.25.102-.548.153-.894.153-.492 0-.939-.113-1.343-.341-.4-.23-.72-.581-.959-1.052-.235-.475-.353-1.074-.353-1.799 0-.741.12-1.36.362-1.857.241-.498.562-.87.963-1.117a2.489 2.489 0 0 1 1.325-.371c.367 0 .674.063.921.188.247.122.446.275.596.46.154.182.272.361.354.537h.068v-1.099h1.803v6.609c0 .557-.137 1.023-.409 1.398-.273.375-.651.656-1.134.843-.48.191-1.033.286-1.658.286Zm.039-4.048c.292 0 .54-.073.741-.218.205-.147.361-.358.469-.63.111-.276.166-.606.166-.989 0-.384-.054-.716-.162-.997a1.467 1.467 0 0 0-.468-.661 1.197 1.197 0 0 0-.746-.234c-.298 0-.55.081-.754.243a1.45 1.45 0 0 0-.465.665 2.829 2.829 0 0 0-.158.984c0 .378.053.705.158.98.108.273.263.484.465.635.204.148.456.222.754.222Zm6.422-2.327V471h-1.816v-6.545h1.73v1.154h.077a1.83 1.83 0 0 1 .729-.903c.341-.224.754-.337 1.24-.337.454 0 .851.1 1.189.299.338.198.601.483.788.852.188.366.281.804.281 1.312V471h-1.815v-3.844c.003-.4-.099-.713-.307-.937-.207-.228-.493-.341-.856-.341-.245 0-.46.052-.648.158-.185.105-.33.258-.435.46a1.601 1.601 0 0 0-.157.72Zm8.632 3.912c-.673 0-1.253-.137-1.738-.409a2.803 2.803 0 0 1-1.117-1.168c-.261-.506-.392-1.104-.392-1.794 0-.673.131-1.264.392-1.773a2.902 2.902 0 0 1 1.104-1.189c.477-.284 1.037-.426 1.679-.426.432 0 .834.07 1.206.209.375.136.701.342.98.618.281.276.5.622.656 1.04.156.415.234.9.234 1.457v.499h-5.527v-1.125h3.819c0-.262-.057-.493-.171-.695a1.215 1.215 0 0 0-.473-.473 1.353 1.353 0 0 0-.694-.175c-.276 0-.52.064-.733.192a1.346 1.346 0 0 0-.495.507 1.44 1.44 0 0 0-.183.703v1.07c0 .324.06.604.179.84.122.235.294.417.516.545.221.128.484.192.788.192.202 0 .386-.029.554-.085a1.1 1.1 0 0 0 .703-.674l1.679.111c-.085.403-.26.756-.524 1.057-.261.298-.6.531-1.014.699-.412.164-.888.247-1.428.247Zm6.601-.021c-.497 0-.947-.128-1.351-.384-.4-.259-.719-.638-.954-1.138-.233-.503-.35-1.119-.35-1.849 0-.75.121-1.374.362-1.871.242-.5.563-.874.963-1.121.404-.25.846-.375 1.326-.375.366 0 .672.063.916.188.247.122.446.275.597.46.153.182.269.361.349.537h.055v-3.281h1.811V471h-1.789v-1.048h-.077a2.335 2.335 0 0 1-.362.541 1.818 1.818 0 0 1-.601.439c-.244.116-.543.175-.895.175Zm.575-1.445c.293 0 .54-.08.742-.239.204-.162.361-.387.468-.677.111-.29.167-.63.167-1.019 0-.389-.054-.727-.162-1.014a1.457 1.457 0 0 0-.469-.665 1.195 1.195 0 0 0-.746-.234c-.298 0-.549.081-.754.243a1.48 1.48 0 0 0-.464.673 2.87 2.87 0 0 0-.158.997c0 .381.052.718.158 1.01.107.29.262.517.464.682.205.162.456.243.754.243Zm7.453 1.338v-8.727h1.816v3.281h.055c.08-.176.195-.355.345-.537.154-.185.353-.338.597-.46.247-.125.554-.188.92-.188.478 0 .918.125 1.321.375.404.247.726.621.968 1.121.241.497.362 1.121.362 1.871 0 .73-.118 1.346-.354 1.849-.233.5-.551.879-.954 1.138a2.45 2.45 0 0 1-1.347.384c-.352 0-.652-.059-.899-.175a1.871 1.871 0 0 1-.601-.439 2.25 2.25 0 0 1-.358-.541h-.081V471h-1.79Zm1.777-3.273c0 .389.054.729.162 1.019.108.29.265.515.469.677.205.159.453.239.746.239.295 0 .545-.081.75-.243.204-.165.359-.392.464-.682.108-.292.162-.629.162-1.01 0-.378-.052-.71-.157-.997a1.489 1.489 0 0 0-.465-.673 1.176 1.176 0 0 0-.754-.243c-.296 0-.546.078-.75.234a1.474 1.474 0 0 0-.465.665 2.876 2.876 0 0 0-.162 1.014Zm6.728 5.728c-.23 0-.446-.019-.648-.056a2.352 2.352 0 0 1-.494-.132l.409-1.355c.213.065.405.101.575.106a.73.73 0 0 0 .448-.119c.128-.085.231-.23.311-.435l.106-.276-2.348-6.733h1.909l1.356 4.806h.068l1.368-4.806h1.922l-2.544 7.252a3.072 3.072 0 0 1-.499.921c-.207.264-.47.467-.788.609-.319.145-.702.218-1.151.218Z" fill="#1864FC" fill-opacity=".5"/><path d="M446.532 471v-8.727h5.778v1.521h-3.933v2.08h3.55v1.521h-3.55V471h-1.845Zm6.88 0v-6.545h1.76v1.142h.068c.119-.407.32-.713.601-.921a1.58 1.58 0 0 1 .971-.315 2.616 2.616 0 0 1 .572.064v1.611a3.162 3.162 0 0 0-.768-.098c-.267 0-.505.058-.715.174a1.289 1.289 0 0 0-.495.477 1.385 1.385 0 0 0-.179.708V471h-1.815Zm7.588.128c-.673 0-1.252-.137-1.738-.409a2.81 2.81 0 0 1-1.117-1.168c-.261-.506-.392-1.104-.392-1.794 0-.673.131-1.264.392-1.773.262-.508.63-.904 1.104-1.189.477-.284 1.037-.426 1.679-.426.432 0 .834.07 1.206.209.375.136.702.342.98.618.281.276.5.622.656 1.04.156.415.235.9.235 1.457v.499h-5.527v-1.125h3.818c0-.262-.057-.493-.171-.695a1.215 1.215 0 0 0-.473-.473 1.353 1.353 0 0 0-.694-.175c-.276 0-.52.064-.733.192-.21.125-.375.294-.495.507a1.44 1.44 0 0 0-.183.703v1.07c0 .324.06.604.179.84.122.235.294.417.516.545.221.128.484.192.788.192.202 0 .387-.029.554-.085.168-.057.311-.143.431-.256a1.11 1.11 0 0 0 .272-.418l1.679.111c-.085.403-.26.756-.524 1.057a2.634 2.634 0 0 1-1.014.699c-.412.164-.888.247-1.428.247Zm7.172 0c-.673 0-1.253-.137-1.738-.409a2.803 2.803 0 0 1-1.117-1.168c-.261-.506-.392-1.104-.392-1.794 0-.673.131-1.264.392-1.773a2.902 2.902 0 0 1 1.104-1.189c.477-.284 1.037-.426 1.679-.426.432 0 .834.07 1.206.209.375.136.701.342.98.618.281.276.5.622.656 1.04.156.415.234.9.234 1.457v.499h-5.526v-1.125h3.818c0-.262-.057-.493-.171-.695a1.215 1.215 0 0 0-.473-.473 1.353 1.353 0 0 0-.694-.175c-.276 0-.52.064-.733.192a1.346 1.346 0 0 0-.495.507 1.44 1.44 0 0 0-.183.703v1.07c0 .324.06.604.179.84.122.235.294.417.516.545.221.128.484.192.788.192.202 0 .386-.029.554-.085a1.1 1.1 0 0 0 .703-.674l1.679.111c-.085.403-.26.756-.524 1.057a2.634 2.634 0 0 1-1.014.699c-.412.164-.888.247-1.428.247Zm4.189 2.327v-9h1.79v1.099h.081c.079-.176.194-.355.345-.537.153-.185.352-.338.597-.46.247-.125.554-.188.92-.188.477 0 .918.125 1.321.375.404.247.726.621.967 1.121.242.497.363 1.121.363 1.871 0 .73-.118 1.346-.354 1.849-.233.5-.551.879-.955 1.138-.4.256-.849.384-1.346.384-.352 0-.652-.059-.899-.175a1.86 1.86 0 0 1-.601-.439 2.221 2.221 0 0 1-.358-.541h-.056v3.503h-1.815Zm1.777-5.728c0 .389.054.729.162 1.019.108.29.264.515.469.677.204.159.453.239.746.239.295 0 .545-.081.75-.243.204-.165.359-.392.464-.682.108-.292.162-.629.162-1.01 0-.378-.053-.71-.158-.997a1.487 1.487 0 0 0-.464-.673 1.178 1.178 0 0 0-.754-.243c-.296 0-.546.078-.75.234a1.474 1.474 0 0 0-.465.665 2.876 2.876 0 0 0-.162 1.014Zm5.817 3.273v-6.545h1.815V471h-1.815Zm.912-7.389a.987.987 0 0 1-.695-.269.87.87 0 0 1-.285-.652c0-.25.095-.464.285-.643a.978.978 0 0 1 .695-.273c.27 0 .5.091.69.273.193.179.29.393.29.643a.864.864 0 0 1-.29.652.97.97 0 0 1-.69.269Zm4.002 5.505.005-2.177h.264l2.096-2.484h2.084l-2.817 3.289h-.43l-1.202 1.372ZM483.224 471v-8.727h1.816V471h-1.816Zm4.091 0-1.926-2.851 1.21-1.283 2.843 4.134h-2.127Z" fill="#1864FC"/></g><defs><clipPath id="a"><path fill="#fff" d="M0 0h500v500H0z"/></clipPath></defs></svg>